<?xml version="1.0" standalone="no"?>
<!DOCTYPE svg PUBLIC "-//W3C//DTD SVG 20010904//EN"
 "http://www.w3.org/TR/2001/REC-SVG-20010904/DTD/svg10.dtd">
<svg version="1.0" xmlns="http://www.w3.org/2000/svg"
 width="700.000000pt" height="700.000000pt" viewBox="0 0 700.000000 700.000000"
 preserveAspectRatio="xMidYMid meet">
<metadata>
Created by potrace 1.14, written by Peter Selinger 2001-2017
</metadata>
<g transform="translate(0.000000,700.000000) scale(0.100000,-0.100000)"
fill="#000000" stroke="none">
<path d="M0 3500 l0 -3500 3500 0 3500 0 0 3500 0 3500 -3500 0 -3500 0 0
-3500z m3728 3175 c9 -3 12 -18 10 -42 -3 -37 -4 -38 -45 -41 l-43 -3 0 -92
c0 -51 -3 -115 -6 -142 l-6 -51 43 -9 c39 -9 44 -13 47 -41 5 -52 -12 -57
-145 -47 l-118 8 0 40 c0 40 0 40 43 43 l42 3 0 68 c0 37 3 102 6 144 l7 77
-35 0 c-18 0 -39 5 -46 12 -17 17 -15 65 2 75 14 8 219 6 244 -2z m-450 -8 c6
-7 23 -111 37 -231 30 -241 30 -239 -34 -234 -32 3 -39 10 -110 125 -42 67
-77 120 -78 119 -1 -1 4 -58 13 -126 14 -117 14 -125 -2 -137 -22 -16 -60 -17
-70 -2 -7 12 -54 376 -54 425 0 33 13 44 54 44 29 0 39 -12 121 -148 38 -61
69 -111 70 -110 2 2 -4 50 -11 108 -19 137 -16 162 16 171 36 10 37 10 48 -4z
m939 -61 c15 -6 17 -54 4 -75 -6 -10 -21 -11 -60 -6 -28 4 -51 4 -51 0 0 -26
-64 -352 -70 -359 -5 -5 -25 -5 -44 -2 -45 9 -45 5 -6 216 17 90 30 165 30
166 0 1 -15 5 -32 9 -64 13 -68 15 -68 45 0 56 14 59 156 34 70 -13 133 -25
141 -28z m-1419 -40 c18 -36 9 -55 -28 -62 -17 -4 -32 -10 -34 -13 -4 -5 50
-212 69 -268 3 -8 13 -9 35 -3 42 12 57 4 66 -33 9 -41 -3 -48 -132 -82 -115
-31 -125 -29 -127 26 -2 29 2 34 31 42 39 12 39 16 7 132 -14 50 -30 106 -35
127 -10 36 -10 36 -46 25 -32 -10 -38 -9 -50 8 -17 22 -18 61 -3 70 16 11 213
64 224 61 6 -1 16 -15 23 -30z m1657 -26 c8 -7 16 -52 20 -111 l7 -101 72 77
71 78 38 -12 c20 -7 37 -18 37 -25 0 -6 -47 -63 -105 -126 -90 -99 -107 -124
-126 -180 -28 -85 -36 -93 -77 -79 -39 13 -41 34 -11 113 21 54 21 63 10 184
-6 70 -11 144 -11 166 0 38 1 38 32 32 17 -3 37 -11 43 -16z m-2110 -121 c20
-39 12 -50 -60 -79 l-53 -22 18 -41 c11 -23 23 -42 27 -42 4 0 30 9 57 19 47
19 49 19 62 1 28 -38 18 -64 -33 -87 -27 -13 -49 -23 -51 -24 -1 -1 14 -38 34
-82 20 -45 34 -88 31 -96 -6 -15 -60 -31 -75 -22 -12 7 -182 389 -182 408 0
15 159 96 192 97 10 1 24 -13 33 -30z m-296 -353 c61 -94 113 -179 116 -188 4
-10 -4 -23 -23 -37 -17 -11 -34 -21 -39 -21 -5 0 -55 29 -110 64 -55 35 -110
69 -123 76 -27 14 -30 21 52 -106 32 -50 58 -96 58 -102 0 -14 -40 -42 -61
-42 -18 0 -239 338 -247 377 -3 18 3 26 31 39 l35 17 104 -68 c56 -37 114 -75
128 -84 28 -19 32 -27 -52 107 -32 51 -61 99 -64 107 -8 20 55 58 73 44 7 -6
62 -88 122 -183z m3181 117 c46 -31 49 -2 -36 -293 -30 -101 -59 -189 -64
-194 -7 -7 -20 -3 -37 11 -29 21 -34 50 -19 104 7 24 3 29 -41 56 l-49 30 -37
-33 c-20 -19 -41 -34 -46 -34 -16 0 -62 42 -59 55 3 14 343 315 356 315 4 0
19 -8 32 -17z m304 -214 c14 -11 26 -29 26 -39 0 -10 -18 -76 -40 -148 -22
-71 -40 -133 -40 -136 0 -4 39 38 87 93 48 56 93 101 102 101 21 0 51 -30 51
-51 0 -15 -283 -349 -296 -349 -15 0 -64 43 -64 56 0 8 16 71 36 140 20 69 34
127 31 130 -2 2 -39 -36 -82 -86 -43 -49 -83 -90 -89 -90 -20 0 -56 31 -56 48
0 18 284 352 299 352 5 0 20 -9 35 -21z m-3995 -22 c25 -27 21 -48 -15 -72
l-25 -16 53 -61 c29 -34 73 -84 98 -111 l45 -49 27 21 c14 12 33 21 41 21 14
0 47 -40 47 -58 0 -17 -180 -163 -197 -160 -10 2 -24 15 -32 30 -15 26 -14 29
12 56 l28 30 -81 93 c-120 137 -106 126 -133 101 -13 -12 -29 -22 -37 -22 -20
0 -50 30 -50 51 0 19 162 169 183 169 8 0 23 -11 36 -23z m4393 -367 c96 -117
90 -171 -27 -276 -132 -118 -179 -140 -246 -111 -38 15 -149 135 -149 159 0
20 327 298 349 298 9 -1 42 -32 73 -70z m-2183 -239 c61 -175 114 -380 131
-512 29 -219 -32 -499 -139 -638 l-33 -44 141 -1176 c78 -647 144 -1189 148
-1206 l5 -29 19 35 c65 128 243 179 354 101 l45 -31 47 29 c149 93 329 39 416
-124 30 -57 31 -183 1 -242 l-20 -42 38 -17 c41 -18 98 -85 98 -116 0 -12 19
-27 58 -46 46 -23 61 -36 77 -70 11 -23 23 -42 27 -43 18 -1 210 161 332 280
121 118 315 341 345 398 27 50 109 69 168 39 39 -21 67 -78 60 -125 -12 -73
-293 -406 -486 -577 -474 -417 -1018 -672 -1636 -765 -181 -28 -529 -38 -716
-20 -694 63 -1328 345 -1850 823 -186 170 -452 493 -465 564 -13 71 47 143
118 143 59 0 85 -21 175 -144 134 -181 335 -388 510 -526 l76 -60 23 33 c41
62 131 107 211 107 l45 0 -7 32 c-19 86 -1 158 53 211 72 70 161 86 246 43 46
-23 50 -24 90 -10 22 8 71 15 109 15 54 0 67 3 67 16 0 31 43 91 80 112 71 40
150 24 207 -42 25 -29 128 -87 136 -76 2 2 58 563 125 1247 l122 1243 -40 56
c-111 156 -164 442 -125 688 22 144 64 307 122 478 l47 137 196 0 196 0 53
-149z m-2720 48 c12 -36 10 -42 -35 -81 -39 -35 -49 -60 -34 -88 16 -30 50
-24 108 20 84 62 157 63 216 2 54 -57 50 -140 -9 -210 -42 -49 -116 -82 -140
-62 -33 27 -16 74 37 101 48 24 66 58 50 94 -16 34 -55 33 -101 -4 -91 -72
-153 -77 -219 -16 -35 31 -37 37 -37 92 0 47 5 66 29 100 30 44 79 83 108 83
9 0 21 -13 27 -31z m959 -289 c97 -59 95 -201 -4 -257 -51 -29 -97 -29 -149 2
-132 77 -78 275 75 275 27 0 58 -8 78 -20z m4364 -135 c48 -91 54 -126 31
-173 -26 -53 -77 -84 -130 -80 -34 2 -43 0 -43 -13 0 -22 -43 -67 -75 -79 -49
-18 -101 -12 -135 16 -28 24 -110 168 -110 194 0 13 390 210 410 207 8 -1 32
-34 52 -72z m-5425 -9 c118 -58 158 -94 169 -151 5 -29 -1 -51 -35 -123 -23
-47 -47 -90 -53 -93 -12 -8 -401 182 -413 200 -3 6 12 45 34 88 77 153 122
165 298 79z m-257 -388 c39 -20 67 -54 83 -101 1 -4 45 -1 97 7 55 9 98 12
103 7 11 -11 0 -66 -16 -80 -7 -5 -57 -17 -112 -27 -55 -9 -103 -19 -108 -23
-4 -4 26 -17 65 -30 102 -32 118 -44 109 -77 -4 -15 -14 -32 -22 -37 -18 -11
-428 119 -436 139 -5 14 30 130 54 177 18 35 69 67 108 67 17 0 51 -10 75 -22z
m5888 -96 c37 -113 36 -123 -19 -125 -34 -2 -35 0 -74 110 -3 9 -15 8 -50 -4
-30 -10 -44 -20 -41 -28 2 -7 10 -32 17 -55 12 -39 11 -44 -7 -57 -34 -25 -66
-13 -81 32 -7 22 -15 45 -17 52 -4 8 -15 8 -48 -2 -48 -14 -49 -19 -27 -97 15
-56 8 -69 -42 -71 l-33 -2 -32 100 c-21 65 -29 103 -23 110 14 15 401 144 423
142 15 -2 27 -25 54 -105z m-1875 48 c84 -94 -45 -226 -142 -144 -38 32 -49
80 -27 123 35 67 118 77 169 21z m-2144 -325 c54 -27 81 -71 81 -128 0 -140
-153 -202 -250 -103 -43 46 -53 122 -21 174 41 65 126 91 190 57z m4105 -31
c3 -9 6 -29 6 -45 0 -26 -10 -36 -77 -80 -43 -28 -79 -54 -81 -57 -1 -4 36
-16 83 -26 47 -10 91 -24 99 -30 20 -16 29 -75 12 -82 -7 -3 -78 12 -157 32
-139 35 -147 36 -223 25 -90 -12 -106 -6 -106 40 0 34 16 43 99 54 45 6 76 22
189 96 74 49 138 89 142 89 4 0 11 -7 14 -16z m-5801 -68 c8 -21 -3 -59 -21
-73 -9 -7 -33 -13 -53 -13 -41 0 -42 -2 -54 -77 l-6 -41 45 -21 c42 -18 46
-23 46 -54 0 -68 -11 -66 -236 45 -198 98 -209 105 -212 133 -5 57 6 61 228
88 250 30 257 31 263 13z m4762 -75 c81 -37 155 -150 155 -236 0 -86 -71 -194
-154 -235 -62 -30 -161 -28 -225 5 -190 96 -187 372 4 461 63 30 161 32 220 5z
m-5021 -341 c125 -13 192 -24 198 -32 11 -17 1 -70 -14 -79 -7 -4 -52 -13
-100 -20 -48 -6 -88 -15 -88 -19 0 -4 35 -13 77 -20 116 -18 123 -22 123 -70
0 -49 13 -46 -250 -64 -217 -15 -230 -13 -230 30 0 47 21 54 168 55 144 1 143
3 -8 32 -53 10 -66 16 -68 33 -5 32 15 41 112 53 49 6 91 12 93 14 2 3 -54 7
-124 11 -165 9 -163 8 -163 56 0 42 9 49 55 43 17 -2 115 -12 219 -23z m6069
-17 c48 -24 69 -69 65 -140 -3 -53 -8 -67 -33 -93 -42 -44 -82 -52 -237 -48
-136 3 -137 3 -167 32 -73 70 -65 190 16 243 20 13 56 20 133 24 124 6 185 1
223 -18z m-4491 -169 c148 -104 137 -306 -22 -387 -47 -24 -63 -28 -113 -24
-71 6 -133 41 -172 98 -41 58 -47 157 -15 224 41 84 116 126 217 122 51 -2 71
-9 105 -33z m4323 -250 c110 -14 205 -31 212 -36 12 -10 8 -65 -7 -81 -4 -5
-72 -28 -151 -51 -160 -48 -161 -44 23 -67 54 -6 102 -17 108 -24 12 -15 2
-72 -14 -78 -11 -4 -421 49 -443 58 -17 6 -17 70 0 84 8 6 74 30 148 54 l134
44 -90 12 c-169 23 -170 23 -173 55 -5 40 4 56 30 56 13 0 113 -12 223 -26z
m-5725 -19 c34 -31 52 -74 53 -124 1 -60 -25 -106 -71 -130 -48 -25 -251 -50
-306 -39 -70 15 -106 65 -106 148 0 96 43 135 174 156 118 19 228 14 256 -11z
m4070 -37 c51 -27 80 -74 80 -134 0 -101 -120 -176 -208 -130 -98 51 -115 168
-36 243 51 47 99 54 164 21z m-1998 -253 c51 -35 76 -100 59 -157 -43 -144
-242 -142 -281 2 -34 128 112 230 222 155z m3583 -143 c229 -67 219 -58 186
-170 -31 -103 -79 -152 -149 -152 -40 0 -230 57 -268 81 -18 11 -40 36 -49 55
-19 41 -17 74 15 178 18 55 24 66 43 66 12 0 112 -27 222 -58z m-5937 -44 c6
-7 14 -29 19 -48 11 -42 -2 -43 203 16 85 24 160 44 166 44 15 0 35 -55 28
-74 -3 -8 -79 -34 -172 -61 -92 -26 -171 -51 -176 -56 -6 -5 -4 -25 3 -51 12
-37 11 -43 -5 -55 -10 -7 -30 -13 -45 -13 -25 0 -28 5 -63 124 -20 68 -36 133
-36 145 0 32 58 53 78 29z m3933 -329 c72 -36 99 -137 54 -206 -57 -87 -204
-83 -251 8 -24 46 -15 131 17 165 50 55 115 67 180 33z m-2243 -131 c37 -37
-12 -113 -57 -88 -35 18 -45 48 -26 76 17 26 62 33 83 12z m2920 -254 c40 -28
16 -94 -34 -94 -52 0 -68 81 -21 100 30 12 30 12 55 -6z m-2683 -119 c45 -44
29 -116 -31 -141 -91 -38 -165 78 -92 146 32 29 92 27 123 -5z m2810 -230 c36
-35 35 -96 -1 -124 -60 -47 -144 -10 -144 64 0 49 36 85 85 85 25 0 44 -8 60
-25z"/>
<path d="M5100 6005 c-42 -43 -43 -45 -25 -60 11 -8 24 -13 29 -12 10 3 48 96
44 109 -2 5 -23 -12 -48 -37z"/>
<path d="M5750 5449 c-134 -113 -126 -101 -95 -137 41 -49 67 -43 163 39 91
78 99 97 60 149 -12 17 -24 30 -27 30 -3 0 -49 -36 -101 -81z"/>
<path d="M3419 5238 c-74 -42 -100 -142 -58 -218 60 -106 219 -105 279 2 28
50 25 129 -8 175 -44 62 -144 82 -213 41z m159 -73 c17 -19 32 -44 32 -55 0
-11 -1 -20 -3 -20 -1 0 -29 28 -62 61 -57 58 -58 61 -30 55 17 -4 45 -22 63
-41z"/>
<path d="M3487 4493 c-3 -4 -18 -44 -35 -88 -28 -76 -30 -90 -36 -270 l-5
-189 35 -63 c19 -34 39 -65 44 -68 5 -3 25 23 44 58 l36 64 0 187 0 187 -35
91 c-39 100 -41 103 -48 91z"/>
<path d="M6217 4899 c-34 -18 -36 -22 -26 -42 20 -38 41 -57 64 -57 44 0 57
38 30 90 -18 35 -19 35 -68 9z"/>
<path d="M6055 4818 c-22 -11 -41 -22 -43 -23 -7 -7 38 -83 53 -88 21 -9 61 8
69 28 5 14 -26 106 -36 105 -2 -1 -21 -10 -43 -22z"/>
<path d="M757 4909 c-15 -9 -47 -59 -47 -73 0 -3 58 -35 130 -71 l130 -65 15
31 c32 61 20 79 -90 136 -108 56 -111 57 -138 42z"/>
<path d="M561 4468 c-24 -64 -23 -68 4 -78 66 -25 71 -24 83 18 15 49 15 47
-4 66 -24 25 -73 21 -83 -6z"/>
<path d="M545 3991 l-50 -6 62 -26 c34 -15 64 -24 67 -21 3 3 6 18 6 34 0 30
4 29 -85 19z"/>
<path d="M6357 3583 c-25 -6 -39 -47 -27 -78 12 -32 38 -38 165 -33 92 3 109
6 121 22 19 27 18 60 -4 79 -15 14 -39 17 -128 16 -60 -1 -117 -3 -127 -6z"/>
<path d="M532 3145 c-94 -15 -112 -26 -112 -66 0 -60 32 -68 182 -45 97 14
118 26 118 67 0 60 -33 68 -188 44z"/>
<path d="M6226 2718 c-20 -76 -4 -94 115 -127 112 -31 137 -29 155 14 7 19 14
41 14 48 0 10 -43 26 -128 51 -70 20 -133 36 -139 36 -6 0 -13 -10 -17 -22z"/>
</g>
</svg>
